PathFileType	4	(X/Y/Z)	/Users/itak/Documents/Research/Walk-IL/dataset/trc/00257_00009.trc
DataRate	CameraRate	NumFrames	NumMarkers	Units	OrigDataRate	OrigDataStartFrame	OrigNumFrames
100.000000	100.000000	4	53	mm	100.000000	133	533
Frame#	Time	RPSI			LPSI			L3			STRN			T10			C7			CLAV			RBAK			LBAK			LSHO			LUPA			LAEL			LAOL			LWTS			LWPS			LFRA			LIFD			LHPS			LHTS			RSHO			RUPA			RAEL			RAOL			RWPS			RFRA			RIFD			RHTS			RHPS			RBHD			LFHD			RFHD			LBHD			LHIP			RHIP			RASI			LASI			LKNE			LTHI			LANK			LTIP			LTOE			LMT1			LMT5			LHEE			RKNE			RTHI			RANK			RTIP			RTOE			RMT5			RHEE			RWTS			RMT1			
		X1	Y1	Z1	X2	Y2	Z2	X3	Y3	Z3	X4	Y4	Z4	X5	Y5	Z5	X6	Y6	Z6	X7	Y7	Z7	X8	Y8	Z8	X9	Y9	Z9	X10	Y10	Z10	X11	Y11	Z11	X12	Y12	Z12	X13	Y13	Z13	X14	Y14	Z14	X15	Y15	Z15	X16	Y16	Z16	X17	Y17	Z17	X18	Y18	Z18	X19	Y19	Z19	X20	Y20	Z20	X21	Y21	Z21	X22	Y22	Z22	X23	Y23	Z23	X24	Y24	Z24	X25	Y25	Z25	X26	Y26	Z26	X27	Y27	Z27	X28	Y28	Z28	X29	Y29	Z29	X30	Y30	Z30	X31	Y31	Z31	X32	Y32	Z32	X33	Y33	Z33	X34	Y34	Z34	X35	Y35	Z35	X36	Y36	Z36	X37	Y37	Z37	X38	Y38	Z38	X39	Y39	Z39	X40	Y40	Z40	X41	Y41	Z41	X42	Y42	Z42	X43	Y43	Z43	X44	Y44	Z44	X45	Y45	Z45	X46	Y46	Z46	X47	Y47	Z47	X48	Y48	Z48	X49	Y49	Z49	X50	Y50	Z50	X51	Y51	Z51	X52	Y52	Z52	X53	Y53	Z53	

134	1.33	-1413.023193359375	1049.685668945312	422.6875	-1404.472290039062	1053.945922851562	301.9907836914062	-1410.670043945312	1135.396362304688	342.833251953125	-1160.126220703125	1311.818237304688	349.0966186523438	-1412.844116210938	1261.399047851562	345.07421875	-1342.083129882812	1520.187622070312	337.1817321777344	-1180.913208007812	1430.5361328125	346.3600463867188	-1425.438720703125	1386.362670898438	411.4395446777344	-1362.674926757812	1480.755981445312	227.2112121582031	-1272.538208007812	1476.593383789062	175.0411071777344	-1298.664794921875	1358.691650390625	96.90369415283203	-1272.172607421875	1149.736328125	68.47976684570312	-1340.195556640625	1124.37890625	117.0644454956055	-1126.036987304688	951.7440795898438	138.0699005126953	-1146.640380859375	922.72119140625	61.04119110107422	-1227.362426757812	1049.333374023438	59.99623107910156	-1068.599975585938	768.9579467773438	143.9059753417969	-1103.337646484375	844.0537109375	71.30629730224609	-1062.883178710938	865.767578125	121.0213851928711	-1291.689086914062	1484.411499023438	508.700439453125	-1316.901733398438	1423.626220703125	576.5123291015625	-1357.702392578125	1148.234008789062	631.058349609375	-1386.139404296875	1140.870239257812	540.4295654296875	-1285.151489257812	914.0652465820312	660.8157348632812	-1334.609008789062	1078.034790039062	646.5471801757812	-1225.844116210938	729.7066650390625	595.2089233398438	-1197.26611328125	802.2083129882812	614.7698974609375	-1249.9912109375	804.9970703125	664.92236328125	-1273.945678710938	1678.769287109375	400.04345703125	-1091.667236328125	1698.057861328125	265.6885375976562	-1071.7841796875	1697.756958007812	363.4123840332031	-1255.748046875	1680.1826171875	260.4820556640625	-1298.147094726562	986.8211059570312	165.4581298828125	-1320.9384765625	1010.771667480469	533.2689819335938	-1221.5537109375	1050.238037109375	499.3059997558594	-1198.799560546875	1025.521484375	218.2897338867188	-1279.19921875	501.294677734375	240.1198425292969	-1274.893310546875	643.403564453125	200.2204284667969	-1394.876953125	38.49312210083008	273.0125427246094	-1339.398315429688	279.3180541992188	246.9355163574219	-1184.5478515625	47.41360092163086	342.6203002929688	-1254.466552734375	37.69387817382812	382.9519653320312	-1264.773803710938	42.5500602722168	267.0848999023438	-1460.400146484375	42.51576614379883	322.4331665039062	-1189.811279296875	526.8773803710938	521.1268920898438	-1230.242919921875	793.6106567382812	546.8196411132812	-1407.322387695312	82.96502685546875	517.2828369140625	-1208.859252929688	406.8762512207031	512.8598022460938	-1200.911376953125	49.05102157592773	497.7982788085938	-1305.00244140625	56.11075592041016	553.3319091796875	-1462.697265625	95.79314422607422	453.8108215332031	-1232.574340820312	924.0905151367188	595.8648681640625	-1249.46630859375	50.3522834777832	447.9237060546875	
135	1.34	-1411.3447265625	1049.540405273438	422.6792907714844	-1403.500854492188	1053.78369140625	301.9699401855469	-1409.4140625	1135.336547851562	342.7263793945312	-1158.681396484375	1311.713989257812	347.9110107421875	-1411.517333984375	1261.33642578125	344.85400390625	-1340.651245117188	1520.117309570312	336.7139587402344	-1179.378051757812	1430.420043945312	345.3622436523438	-1423.794189453125	1386.290283203125	411.2001953125	-1361.573120117188	1480.779541015625	226.8099822998047	-1271.57666015625	1476.634033203125	174.3584747314453	-1297.976440429688	1358.73095703125	96.24323272705078	-1271.4404296875	1149.682250976562	67.95628356933594	-1339.520141601562	1124.36474609375	116.5035552978516	-1124.909057617188	952.2638549804688	138.2194519042969	-1145.234741210938	923.0419311523438	61.21796417236328	-1226.327880859375	1049.392211914062	59.77491760253906	-1067.029541015625	769.7925415039062	144.6674499511719	-1101.81494140625	844.5355224609375	71.65813446044922	-1061.484252929688	866.5565795898438	121.6219177246094	-1289.721313476562	1484.239379882812	508.055419921875	-1314.748168945312	1423.437622070312	575.9061279296875	-1355.605590820312	1147.99365234375	630.3456420898438	-1384.1728515625	1140.727661132812	539.7481079101562	-1282.676025390625	913.8195190429688	659.664306640625	-1332.431640625	1077.788452148438	645.7244873046875	-1223.010009765625	729.7522583007812	593.673583984375	-1194.62646484375	802.2620239257812	613.3672485351562	-1247.32666015625	804.82421875	663.5548706054688	-1272.0146484375	1678.513427734375	399.6301879882812	-1090.7412109375	1698.021484375	263.9339904785156	-1070.090942382812	1697.660400390625	361.4727172851562	-1254.845947265625	1680.015869140625	259.9737243652344	-1298.206909179688	986.7011108398438	164.7177886962891	-1318.4453125	1010.797485351562	532.7796020507812	-1219.361694335938	1050.198120117188	498.1704406738281	-1198.360107421875	1025.41845703125	217.0170288085938	-1278.85888671875	501.1613464355469	239.6319732666016	-1274.611694335938	643.2263793945312	199.6217956542969	-1394.88232421875	38.50751876831055	273.0116271972656	-1339.211669921875	279.1480102539062	246.7564849853516	-1184.582641601562	47.42254257202148	342.6053161621094	-1254.470336914062	37.6951904296875	382.9349365234375	-1264.770751953125	42.56252288818359	267.0712585449219	-1460.419067382812	42.51268005371094	322.4446105957031	-1182.409790039062	528.0379028320312	520.1979370117188	-1225.876220703125	794.4767456054688	545.6920776367188	-1403.539306640625	86.07672119140625	518.1243896484375	-1201.859130859375	408.1343078613281	511.9324951171875	-1197.708251953125	49.91641998291016	496.4901123046875	-1301.201416015625	58.26469802856445	553.1712036132812	-1459.343139648438	99.49291229248047	455.1953430175781	-1230.241333007812	924.0357666015625	594.6483764648438	-1246.82958984375	51.58176803588867	447.2060852050781	
136	1.35	-1409.554077148438	1049.388916015625	422.7710266113281	-1402.473388671875	1053.626098632812	302.0279846191406	-1408.090454101562	1135.261108398438	342.7076721191406	-1157.154174804688	1311.607299804688	346.7393798828125	-1410.12158203125	1261.2998046875	344.6991882324219	-1339.150024414062	1520.048583984375	336.2966613769531	-1177.77001953125	1430.302490234375	344.3924560546875	-1422.07958984375	1386.216064453125	411.0124816894531	-1360.413940429688	1480.809448242188	226.4680480957031	-1270.556884765625	1476.67626953125	173.7106018066406	-1297.27734375	1358.803833007812	95.61296081542969	-1270.734375	1149.630859375	67.46701812744141	-1338.872680664062	1124.396118164062	115.9643936157227	-1123.929443359375	952.6985473632812	138.3994598388672	-1143.984008789062	923.2958984375	61.42626571655273	-1225.360107421875	1049.424194335938	59.59223937988281	-1065.463500976562	770.6089477539062	145.497802734375	-1100.462036132812	844.9249877929688	72.06585693359375	-1060.246704101562	867.22705078125	122.238639831543	-1287.658813476562	1484.037475585938	507.4564819335938	-1312.49560546875	1423.208740234375	575.3408813476562	-1353.4228515625	1147.718383789062	629.6502075195312	-1382.11767578125	1140.552001953125	539.0873413085938	-1280.12060546875	913.5448608398438	658.5280151367188	-1330.151977539062	1077.510009765625	644.9114990234375	-1220.091186523438	729.74951171875	592.1544799804688	-1191.888061523438	802.275634765625	612.008544921875	-1244.574584960938	804.6257934570312	662.2055053710938	-1270.018798828125	1678.259887695312	399.2500915527344	-1089.739135742188	1698.000122070312	262.2417907714844	-1068.343994140625	1697.57568359375	359.5949096679688	-1253.865356445312	1679.85888671875	259.5062255859375	-1298.253540039062	986.5545043945312	164.0205078125	-1315.694946289062	1010.858581542969	532.3737182617188	-1217.049194335938	1050.151489257812	497.0392456054688	-1197.914428710938	1025.323852539062	215.7686157226562	-1278.558837890625	501.0378112792969	239.1406860351562	-1274.349243164062	643.0728759765625	199.0064849853516	-1394.889038085938	38.52497482299805	273.0096740722656	-1339.068725585938	278.9817199707031	246.5853424072266	-1184.607177734375	47.43265533447266	342.5928649902344	-1254.48583984375	37.69003295898438	382.9115295410156	-1264.763305664062	42.57892990112305	267.0501098632812	-1460.440673828125	42.51288986206055	322.4631652832031	-1175.202270507812	529.2063598632812	519.1857299804688	-1221.520141601562	795.3365478515625	544.6098022460938	-1398.96630859375	88.70543670654297	519.0292358398438	-1194.9384765625	409.3609619140625	510.9400024414062	-1193.643676757812	50.91078186035156	494.9349670410156	-1296.460327148438	60.25302124023438	552.8967895507812	-1455.338134765625	102.5833435058594	456.742431640625	-1227.780029296875	923.9611206054688	593.4635009765625	-1243.428955078125	52.84999465942383	446.3069763183594	
137	1.36	-1407.654907226562	1049.247192382812	422.9532775878906	-1401.381713867188	1053.479736328125	302.154296875	-1406.696533203125	1135.186645507812	342.7689514160156	-1155.544799804688	1311.50244140625	345.5771789550781	-1408.651733398438	1261.294799804688	344.612548828125	-1337.57080078125	1519.990844726562	335.9293518066406	-1176.090209960938	1430.195068359375	343.4407348632812	-1420.288696289062	1386.150146484375	410.8782653808594	-1359.197875976562	1480.849243164062	226.1849365234375	-1269.484008789062	1476.723510742188	173.0952301025391	-1296.563598632812	1358.914794921875	95.01919555664062	-1270.047119140625	1149.593505859375	67.01900482177734	-1338.247314453125	1124.480224609375	115.4519805908203	-1123.10107421875	953.0496215820312	138.6085357666016	-1142.895263671875	923.4896850585938	61.65532684326172	-1224.463623046875	1049.43896484375	59.44609832763672	-1063.9130859375	771.3954467773438	146.3763122558594	-1099.288818359375	845.2230224609375	72.51306915283203	-1059.18212890625	867.764404296875	122.8581008911133	-1285.491333007812	1483.817138671875	506.90185546875	-1310.133422851562	1422.9462890625	574.8153076171875	-1351.140747070312	1147.41650390625	628.9718627929688	-1379.956420898438	1140.350341796875	538.4526977539062	-1277.484741210938	913.2538452148438	657.4169921875	-1327.758544921875	1077.208862304688	644.1084594726562	-1217.116455078125	729.6934204101562	590.6627807617188	-1189.053833007812	802.2493896484375	610.6957397460938	-1241.743774414062	804.4109497070312	660.8804321289062	-1267.948364257812	1678.020263671875	398.9002990722656	-1088.650390625	1697.991333007812	260.6102294921875	-1066.538330078125	1697.498901367188	357.7804565429688	-1252.79052734375	1679.724365234375	259.077880859375	-1298.264038085938	986.3792114257812	163.3744964599609	-1312.676879882812	1010.980041503906	532.0439453125	-1214.621459960938	1050.116577148438	495.9125061035156	-1197.4482421875	1025.238403320312	214.5460510253906	-1278.290405273438	500.9135437011719	238.6527252197266	-1274.107177734375	642.9359741210938	198.3773651123047	-1394.895629882812	38.54551315307617	273.0077819824219	-1338.967529296875	278.8226013183594	246.4267578125	-1184.622436523438	47.44359588623047	342.5819702148438	-1254.508056640625	37.68003082275391	382.8824462890625	-1264.75146484375	42.60114288330078	267.0205688476562	-1460.461547851562	42.51351165771484	322.4879150390625	-1168.217163085938	530.3809204101562	518.0826416015625	-1217.194213867188	796.18798828125	543.5581665039062	-1393.547729492188	90.77779388427734	519.9813232421875	-1188.089965820312	410.5473327636719	509.8839721679688	-1188.656372070312	51.97945785522461	493.1859130859375	-1290.735595703125	62.00489807128906	552.5091552734375	-1450.609252929688	104.9848175048828	458.4170532226562	-1225.19775390625	923.8704223632812	592.31591796875	-1239.169677734375	54.10318374633789	445.2611999511719	
